<svg width="176" height="93" viewBox="0 0 176 93" fill="none" xmlns="http://www.w3.org/2000/svg">
<path d="M87.1799 50.7521C85.4537 48.7742 76.6243 38.6016 73.501 33.8397C71.3996 30.4944 70.2024 26.6893 70.0203 22.7764C70.0165 18.1625 71.9033 13.7361 75.2656 10.4709C78.6279 7.20571 83.1903 5.36916 87.9493 5.36523H88.0354C92.7944 5.36522 97.3592 7.19525 100.729 10.4539C104.098 13.7126 105.996 18.1338 106.008 22.7478C105.831 26.6568 104.644 30.46 102.556 33.808C99.575 38.3755 91.3592 47.9448 88.905 50.7658L88.0332 51.7611L87.1799 50.7521Z" fill="white"/>
<path d="M88.0647 6.38891C92.5386 6.39339 96.8279 8.11845 99.9914 11.1855C103.155 14.2526 104.934 18.4112 104.939 22.7488C104.759 26.4612 103.632 30.0723 101.659 33.2584C98.5527 38.0436 89.4193 48.567 88.0909 50.1022C86.7504 48.567 77.6072 38.0573 74.4828 33.2859C72.5002 30.1059 71.364 26.4981 71.1764 22.7868C71.1705 18.4595 72.9315 14.3057 76.0745 11.2332C79.2175 8.16066 83.487 6.41906 87.9503 6.38891H88.0593H88.0647ZM88.0593 4.32861H87.9503C85.4532 4.33041 82.9809 4.80945 80.6749 5.73834C78.3689 6.66722 76.2743 8.02773 74.5111 9.74205C72.7478 11.4564 71.3505 13.4909 70.3989 15.7292C69.4472 17.9675 68.9601 20.3658 68.9653 22.7868C69.1531 26.8891 70.4042 30.8793 72.6029 34.3889C75.7546 39.2058 84.6036 49.3974 86.3668 51.4303L87.9819 53.3215L89.6166 51.4715C92.0838 48.6367 100.343 39.0251 103.348 34.3932C105.539 30.8762 106.783 26.8813 106.964 22.7762C106.96 17.9075 104.971 13.2376 101.431 9.78454C97.891 6.33147 93.0864 4.37525 88.0647 4.34235L88.0593 4.32861Z" fill="white"/>
<path d="M104.823 24.3252C95.4864 28.8049 88.1939 36.4813 84.3551 45.8707C86.1238 47.9585 87.5362 49.5771 88.0069 50.1022C89.3474 48.567 98.4623 38.0299 101.571 33.2585C103.288 30.5339 104.395 27.4906 104.823 24.3252V24.3252Z" fill="#39B54A"/>
<path d="M104.938 22.7213C103.987 22.6656 103.074 22.6378 102.199 22.6378C91.8544 22.613 81.8678 26.3088 74.1711 33.0101L74.3422 33.2869C75.1552 34.5316 76.3965 36.1777 77.7936 37.9612C84.5522 29.8766 94.2528 24.6146 104.895 23.2601V22.7488L104.938 22.7213Z" fill="#39B54A"/>
<path d="M73.7582 32.2361C75.415 30.8608 77.1796 29.6124 79.036 28.5022C76.5855 26.8525 73.9602 25.4616 71.2048 24.353C71.5693 27.1062 72.4337 29.7751 73.7582 32.2361V32.2361Z" fill="#8DC63F"/>
<path d="M71.1906 24.2557C74.065 25.3105 76.8108 26.6694 79.3781 28.3076C80.5992 27.596 81.8569 26.9454 83.1465 26.3582C79.3059 24.8037 75.2469 23.8154 71.1045 23.4263C71.1328 23.6749 71.1615 23.9514 71.1906 24.2557Z" fill="#8DC63F"/>
<path d="M71.0903 22.8154V23.3267C75.4206 23.6062 79.6794 24.5387 83.7133 26.0907C85.1989 25.4375 86.7229 24.8695 88.2773 24.3896C82.7915 22.4056 76.8623 21.8625 71.0903 22.8154Z" fill="#8DC63F"/>
<path d="M76.6962 21.9746C80.8568 21.9706 84.9805 22.7306 88.8494 24.2145C92.7994 23.056 96.9041 22.4689 101.031 22.4722C102.352 22.4722 103.655 22.5321 104.939 22.6518C104.908 18.3262 103.113 14.1882 99.9457 11.1413C96.7787 8.09437 92.497 6.38599 88.0353 6.38916H87.9492C83.5347 6.39654 79.2986 8.07912 76.1477 11.0767C72.9968 14.0744 71.1815 18.1488 71.0903 22.4278C72.9423 22.1224 74.8176 21.9697 76.6962 21.9714V21.9746Z" fill="white"/>
<path d="M104.853 24.1036V23.4126C94.3373 25.0335 84.852 30.4731 78.3223 38.6271C80.0659 40.8121 82.0024 43.1355 83.6851 45.1409C87.8025 35.8238 95.3478 28.325 104.853 24.1036V24.1036Z" fill="#39B54A"/>
<path d="M82.6586 7.78598L88.0213 1.604L93.371 7.78598H82.6586Z" fill="#FBB040"/>
<path d="M88.0212 3.194L91.1031 6.74828H84.9404L88.0212 3.194V3.194ZM88.0212 0L86.3953 1.88069L83.3145 5.43497L80.3906 8.80858H95.6475L92.7051 5.43391L89.6483 1.88069L88.0212 0V0Z" fill="white"/>
<path d="M89.5197 6.44384L88.0179 3.19385L86.5097 6.44384C83.1972 6.73169 80.0451 7.95747 77.4455 9.96869C74.846 11.9799 72.9138 14.6878 71.8893 17.7554H104.125C103.102 14.6901 101.172 11.9837 98.576 9.97247C95.9798 7.96127 92.8314 6.73388 89.5218 6.44279L89.5197 6.44384Z" fill="#FBB040"/>
<path d="M18.2723 78.9909C18.3414 80.0792 18.1773 81.1696 17.7903 82.1934C17.4033 83.2172 16.8019 84.1521 16.0238 84.9394C15.2458 85.7268 14.308 86.3493 13.2695 86.7679C12.231 87.1865 11.1144 87.392 9.98997 87.3716C9.05215 87.416 8.11549 87.2635 7.24408 86.9245C6.37267 86.5855 5.58707 86.068 4.94104 85.4074V92.9999H0V70.8733H4.65007V72.7403C5.31332 72.0145 6.13991 71.4464 7.06587 71.08C7.99184 70.7136 8.99235 70.5586 9.98997 70.6271C11.1131 70.6068 12.2285 70.812 13.2659 71.2297C14.3034 71.6475 15.2405 72.2688 16.0183 73.0546C16.7962 73.8404 17.398 74.7737 17.7859 75.7958C18.1737 76.818 18.3393 77.9069 18.2723 78.9941V78.9909ZM13.3508 78.9909C13.4018 78.4161 13.3291 77.8373 13.1372 77.2913C12.9453 76.7452 12.6385 76.2437 12.2362 75.8187C11.8339 75.3936 11.3448 75.0543 10.8001 74.8221C10.2554 74.59 9.66686 74.4701 9.07184 74.4701C8.47681 74.4701 7.88827 74.59 7.34355 74.8221C6.79883 75.0543 6.3098 75.3936 5.90749 75.8187C5.50518 76.2437 5.19835 76.7452 5.00647 77.2913C4.81459 77.8373 4.74184 78.4161 4.79283 78.9909C4.74184 79.5657 4.81459 80.1444 5.00647 80.6905C5.19835 81.2366 5.50518 81.7381 5.90749 82.1631C6.3098 82.5881 6.79883 82.9275 7.34355 83.1597C7.88827 83.3918 8.47681 83.5117 9.07184 83.5117C9.66686 83.5117 10.2554 83.3918 10.8001 83.1597C11.3448 82.9275 11.8339 82.5881 12.2362 82.1631C12.6385 81.7381 12.9453 81.2366 13.1372 80.6905C13.3291 80.1444 13.4018 79.5657 13.3508 78.9909V78.9909Z" fill="white"/>
<path d="M29.826 70.6252V74.9835H28.7275C26.0456 74.9835 24.2594 76.3666 24.2594 79.5193V87.1266H19.399V70.8629H24.0491V73.0067C24.7427 72.1881 25.6302 71.5443 26.6359 71.1301C27.6416 70.716 28.7357 70.5438 29.8249 70.6284L29.826 70.6252Z" fill="white"/>
<path d="M29.4238 79.1454C29.4238 74.2461 33.3198 70.79 38.6564 70.79C43.9931 70.79 47.8585 74.2693 47.8585 79.1454C47.8585 84.0214 43.9931 87.5007 38.6564 87.5007C33.3198 87.5007 29.4238 84.0446 29.4238 79.1454ZM42.9283 79.1454C42.9283 76.3349 41.0823 74.6402 38.6564 74.6402C38.059 74.6319 37.4665 74.7454 36.9173 74.9734C36.368 75.2013 35.8743 75.5385 35.4681 75.9633C35.0618 76.388 34.7522 76.8907 34.5591 77.4389C34.3661 77.9871 34.294 78.5684 34.3474 79.1454C34.3474 81.9558 36.1935 83.6506 38.6564 83.6506C41.1193 83.6506 42.9283 81.9558 42.9283 79.1454Z" fill="white"/>
<path d="M77.0951 77.8161V87.1234H72.2314V78.5494C72.2314 75.9217 71.0185 74.7045 69.0504 74.7045C66.8708 74.7045 65.3451 76.0876 65.3451 78.9636V87.1224H60.4782V78.5494C60.4782 75.9217 59.323 74.7045 57.2971 74.7045C55.2712 74.7045 53.617 76.0876 53.617 78.9636V87.1224H48.7533V70.8597H53.4034V72.7404C54.072 72.0377 54.8905 71.4847 55.802 71.1197C56.7134 70.7548 57.6959 70.5868 58.6812 70.6273C59.7582 70.5748 60.831 70.793 61.7955 71.2606C62.7601 71.7281 63.5837 72.4293 64.1867 73.2961C64.9193 72.4357 65.8451 71.7492 66.8934 71.289C67.9417 70.8288 69.0847 70.6071 70.235 70.641C74.1669 70.6252 77.0951 72.8513 77.0951 77.8161Z" fill="white"/>
<path d="M96.394 64.6924V87.1233H91.7439V85.2563C91.0956 85.9716 90.2873 86.5337 89.3808 86.9C88.4742 87.2662 87.4933 87.4268 86.513 87.3694C85.3801 87.4027 84.2525 87.2067 83.202 86.794C82.1516 86.3813 81.2013 85.761 80.4118 84.9725C79.6224 84.184 79.011 83.2448 78.6167 82.2145C78.2224 81.1843 78.0538 80.0857 78.1217 78.9888C78.0538 77.8919 78.2224 76.7933 78.6167 75.763C79.011 74.7328 79.6224 73.7935 80.4118 73.005C81.2013 72.2166 82.1516 71.5962 83.202 71.1835C84.2525 70.7708 85.3801 70.5749 86.513 70.6081C87.4467 70.563 88.3793 70.7153 89.2462 71.0545C90.1132 71.3936 90.8937 71.9115 91.5336 72.5722V64.6924H96.394ZM91.6153 78.9919C91.53 78.0437 91.111 77.1527 90.4285 76.4684C89.7461 75.7842 88.8417 75.3482 87.867 75.2336C86.8924 75.1191 85.9068 75.3329 85.0754 75.8392C84.2441 76.3456 83.6176 77.1136 83.301 78.0146C82.9844 78.9156 82.997 79.8948 83.3366 80.7879C83.6762 81.681 84.3222 82.4337 85.1663 82.9198C86.0104 83.4059 87.0012 83.5959 87.9726 83.4579C88.944 83.3198 89.8369 82.8622 90.5016 82.1616C90.9042 81.7373 91.2111 81.2363 91.4029 80.6906C91.5947 80.1448 91.667 79.5663 91.6153 78.9919V78.9919Z" fill="white"/>
<path d="M98.02 65.9645C98.0382 65.5987 98.1312 65.24 98.2935 64.9092C98.4558 64.5785 98.6843 64.2823 98.9656 64.0379C99.2469 63.7934 99.5755 63.6056 99.9324 63.4852C100.289 63.3649 100.667 63.3144 101.044 63.3368C101.422 63.2884 101.805 63.3171 102.171 63.4213C102.536 63.5255 102.875 63.7028 103.165 63.9417C103.455 64.1807 103.691 64.476 103.856 64.8085C104.021 65.1411 104.113 65.5036 104.125 65.8726C104.066 66.6031 103.728 67.286 103.177 67.7878C102.626 68.2896 101.902 68.5744 101.146 68.5866C100.391 68.5987 99.6574 68.3373 99.0898 67.8535C98.5222 67.3696 98.161 66.698 98.0767 65.9698L98.02 65.9645ZM98.6194 70.8596H103.483V87.1233H98.6052L98.6194 70.8596Z" fill="white"/>
<path d="M113.938 70.6241L113.81 71.2327H118.089L117.347 74.8557H113.183L110.658 87.1224H105.794L108.319 74.842H105.694L106.436 71.219H109.061L109.246 70.2786C109.477 68.5915 110.359 67.0517 111.713 65.9691C113.068 64.8865 114.795 64.3414 116.547 64.4432C117.896 64.4107 119.23 64.7257 120.413 65.3561L118.515 68.7445C117.955 68.3449 117.271 68.1401 116.576 68.1634C115.079 68.1771 114.281 68.9231 113.938 70.6241Z" fill="white"/>
<path d="M135.848 70.8588L132.51 87.1236H127.889L128.202 85.5197C126.789 86.7437 124.948 87.4012 123.053 87.3592C122.075 87.3739 121.104 87.1933 120.2 86.8285C119.297 86.4636 118.481 85.9225 117.802 85.2386C117.124 84.5548 116.598 83.7429 116.257 82.8535C115.916 81.9641 115.768 81.0162 115.821 80.0689C115.764 78.8524 115.961 77.6371 116.399 76.4961C116.838 75.355 117.51 74.3116 118.375 73.4285C119.24 72.5453 120.28 71.8406 121.432 71.3565C122.585 70.8725 123.826 70.6191 125.082 70.6115C126.135 70.5164 127.194 70.6927 128.154 71.1226C129.113 71.5525 129.938 72.2208 130.545 73.0596L130.988 70.8472L135.848 70.8588ZM129.486 78.1195C129.522 77.6278 129.446 77.1345 129.264 76.6742C129.081 76.214 128.798 75.7981 128.432 75.4557C128.066 75.1132 127.627 74.8527 127.147 74.6923C126.666 74.5319 126.155 74.4755 125.649 74.5272C122.796 74.5272 120.728 76.6984 120.728 79.8787C120.692 80.3704 120.768 80.8637 120.95 81.324C121.132 81.7842 121.416 82.2001 121.782 82.5425C122.148 82.885 122.586 83.1455 123.067 83.3059C123.548 83.4663 124.059 83.5227 124.565 83.471C127.432 83.4721 129.486 81.3008 129.486 78.1206V78.1195Z" fill="white"/>
<path d="M148.585 70.6241L147.714 74.9803H146.587C145.943 74.9194 145.294 74.9819 144.675 75.1643C144.057 75.3468 143.482 75.6456 142.982 76.0436C142.483 76.4417 142.07 76.9312 141.765 77.4843C141.461 78.0373 141.272 78.643 141.21 79.2668L139.641 87.1213H134.778L138.116 70.8608H142.738L142.339 72.7964C143.157 72.0197 144.139 71.4235 145.217 71.0486C146.295 70.6737 147.444 70.5289 148.585 70.6241V70.6241Z" fill="white"/>
<path d="M176 76.0602C175.999 76.7296 175.926 77.3971 175.782 78.0518L173.942 87.1234H169.079L170.862 78.4385C170.948 78.029 170.991 77.6119 170.99 77.1938C171.034 76.8458 170.994 76.4926 170.874 76.162C170.753 75.8315 170.555 75.5325 170.295 75.2886C170.035 75.0448 169.72 74.8626 169.376 74.7565C169.031 74.6504 168.666 74.6232 168.308 74.6771C166.069 74.6771 164.5 75.945 163.915 78.8262L162.203 87.1234H157.34L159.123 78.4385C159.207 78.0425 159.25 77.6394 159.251 77.2351C159.298 76.8871 159.262 76.5334 159.145 76.2013C159.028 75.8692 158.834 75.5677 158.577 75.3202C158.321 75.0728 158.009 74.886 157.665 74.7745C157.322 74.6629 156.957 74.6296 156.599 74.6771C154.317 74.6771 152.79 75.945 152.177 78.8262L150.495 87.1234H145.632L148.97 70.8619H153.588L153.217 72.5524C154.659 71.2807 156.546 70.5887 158.495 70.6167C159.523 70.5503 160.549 70.7668 161.455 71.2415C162.361 71.7161 163.111 72.4295 163.617 73.2993C164.424 72.4397 165.413 71.7579 166.515 71.2999C167.617 70.8419 168.808 70.6183 170.007 70.6442C173.604 70.6252 176 72.5196 176 76.0602Z" fill="white"/>
<path d="M88.007 57.9579C93.986 57.9579 98.8329 57.2148 98.8329 56.2981C98.8329 55.3813 93.986 54.6382 88.007 54.6382C82.0281 54.6382 77.1812 55.3813 77.1812 56.2981C77.1812 57.2148 82.0281 57.9579 88.007 57.9579Z" fill="#F4F6F8"/>
</svg>
